<svg width="82" height="82" viewBox="0 0 82 82" fill="none" xmlns="http://www.w3.org/2000/svg">
<path d="M40.9998 8.19995C36.6503 8.19995 32.4789 9.9278 29.4033 13.0034C26.3277 16.079 24.5998 20.2504 24.5998 24.6C24.5998 28.9495 26.3277 33.1209 29.4033 36.1965C32.4789 39.2721 36.6503 41 40.9998 41C45.3494 41 49.5208 39.2721 52.5964 36.1965C55.672 33.1209 57.3998 28.9495 57.3998 24.6C57.3998 20.2504 55.672 16.079 52.5964 13.0034C49.5208 9.9278 45.3494 8.19995 40.9998 8.19995ZM20.5367 45.1C19.4568 45.0951 18.3865 45.3036 17.3874 45.7135C16.3882 46.1234 15.4799 46.7267 14.7146 47.4886C13.9492 48.2505 13.3419 49.1561 12.9275 50.1534C12.5131 51.1507 12.2998 52.22 12.2998 53.3C12.2998 60.233 15.7151 65.4606 21.0533 68.8677C26.3095 72.2174 33.3943 73.7999 40.9998 73.7999C42.4649 73.7999 43.9081 73.7412 45.3294 73.6237C45.0016 72.2034 45.0228 70.7249 45.3912 69.3147C45.7596 67.9044 46.4644 66.6045 47.445 65.5262L49.6795 63.0374C50.6963 61.9102 51.9969 61.0763 53.4456 60.6227C54.8944 60.1691 56.4383 60.1124 57.9164 60.4586L61.1349 61.2212C62.6847 59.942 63.6236 58.4331 64.0541 56.625L61.9303 54.5505C60.8228 53.4676 60.0555 52.085 59.7226 50.5722C59.3898 49.0595 59.5058 47.4825 60.0566 46.0347L60.4092 45.1H20.5367ZM63.8942 47.4861L65.0545 44.4111C66.1123 41.619 69.4087 40.2415 72.1885 41.4264L73.7793 42.107C75.7186 42.9352 77.3217 44.4357 77.662 46.4529C79.5357 57.6254 69.8392 73.517 58.679 77.5719C56.6618 78.3017 54.4847 77.7359 52.7545 76.5633L51.3359 75.5998C50.7535 75.2075 50.2631 74.6936 49.8986 74.0934C49.5341 73.4931 49.3042 72.821 49.2247 72.1233C49.1452 71.4256 49.218 70.719 49.4381 70.0521C49.6581 69.3853 50.0203 68.7741 50.4995 68.2609L52.734 65.7721C53.2589 65.1941 53.9285 64.7667 54.6737 64.5339C55.419 64.3011 56.2129 64.2714 56.9734 64.4478L61.9959 65.6369C65.9784 63.1495 68.1131 59.6509 68.4001 55.1409L64.8003 51.619C64.2627 51.0935 63.8904 50.4223 63.7294 49.688C63.5684 48.9537 63.6257 48.1883 63.8942 47.4861Z" fill="black"/>
</svg>
