<svg width="628" height="628" viewBox="0 0 628 628" fill="none" xmlns="http://www.w3.org/2000/svg">
<g clip-path="url(#clip0_76_4)">
<path d="M72.4615 96.6154C32.4628 96.6154 0 129.078 0 169.077V458.923C0 498.922 32.4628 531.385 72.4615 531.385H555.538C595.537 531.385 628 498.922 628 458.923V169.077C628 129.078 595.537 96.6154 555.538 96.6154H72.4615ZM72.4615 144.923H555.538C568.847 144.923 579.692 155.768 579.692 169.077V181.154L314 324.579L48.3077 181.154V169.077C48.3077 155.768 59.1528 144.923 72.4615 144.923ZM48.3077 187.941L206.056 310.981L51.3269 469.502L240.041 335.135L314 382.694L387.983 335.135L576.673 469.502L421.944 310.981L579.692 187.941V458.923C579.559 462.642 578.523 466.273 576.673 469.502C572.688 477.352 564.934 483.077 555.538 483.077H72.4615C63.0657 483.077 55.3123 477.377 51.3269 469.502C49.4813 466.28 48.4452 462.634 48.3077 458.923V187.941Z" fill="black"/>
</g>
<defs>
<clipPath id="clip0_76_4">
<rect width="628" height="628" fill="white"/>
</clipPath>
</defs>
</svg>
