<svg width="108" height="108" viewBox="0 0 108 108" fill="none" xmlns="http://www.w3.org/2000/svg">
<g clip-path="url(#clip0_98_21)">
<path d="M107.647 96.0407C107.648 97.5652 107.349 99.0751 106.767 100.484C106.184 101.893 105.329 103.173 104.252 104.251C103.174 105.33 101.895 106.186 100.487 106.769C99.0782 107.353 97.5686 107.654 96.0441 107.654H11.5999C10.0757 107.653 8.56657 107.352 7.15873 106.768C5.75088 106.184 4.47188 105.328 3.39473 104.25C2.31758 103.171 1.46339 101.891 0.88092 100.483C0.298452 99.0743 -0.000884716 97.5649 1.9641e-06 96.0407V11.6049C-0.000445676 8.52786 1.22138 5.5766 3.39673 3.4003C5.57208 1.224 8.5228 0.000894988 11.5999 0L96.0457 0C102.458 0 107.649 5.1975 107.649 11.6049L107.647 96.0407Z" fill="#EC1C24"/>
<path d="M34.501 61.8452C34.501 64.0575 33.9323 66.0471 32.7882 67.8122C31.644 69.5858 29.9751 70.9661 27.7712 71.9685C25.569 72.9641 22.9635 73.467 19.948 73.467C16.3266 73.467 13.3482 72.7836 10.9941 71.4167C9.34358 70.4501 7.95166 69.0981 6.93736 67.4764C5.89617 65.8345 5.37305 64.2381 5.37305 62.6907C5.37305 61.7929 5.68692 61.0217 6.30623 60.3771C6.93736 59.7358 7.73048 59.4186 8.69911 59.4186C9.47873 59.4186 10.1436 59.6683 10.687 60.1678C11.2253 60.6673 11.686 61.4048 12.0724 62.3936C12.5415 63.5563 13.041 64.5334 13.5844 65.3113C14.1261 66.0994 14.8939 66.744 15.8727 67.2486C16.8548 67.7616 18.1508 68.0164 19.7505 68.0164C21.9527 68.0164 23.7347 67.5034 25.1067 66.4791C26.482 65.4548 27.1772 64.1706 27.1772 62.6367C27.1772 61.4233 26.8043 60.4378 26.0635 59.6768C25.3227 58.9208 24.3591 58.342 23.1863 57.942C22.0101 57.5387 20.439 57.1118 18.4748 56.6629C15.8423 56.047 13.6367 55.3264 11.8615 54.5029C10.0829 53.676 8.68055 52.5521 7.63936 51.1279C6.5948 49.7036 6.07167 47.9335 6.07167 45.8156C6.07167 43.7991 6.62011 42.0103 7.72373 40.4393C8.82061 38.875 10.4119 37.6718 12.496 36.828C14.5851 35.9876 17.032 35.5641 19.8484 35.5641C22.0995 35.5641 24.0419 35.8459 25.6821 36.4011C27.3257 36.963 28.6909 37.7038 29.776 38.6269C30.861 39.5516 31.6508 40.527 32.1469 41.5395C32.6532 42.5554 32.9012 43.5493 32.9012 44.5163C32.9012 45.3988 32.5874 46.192 31.9664 46.9075C31.3335 47.6112 30.5573 47.9689 29.6258 47.9689C28.7787 47.9689 28.1273 47.7546 27.6885 47.3276C27.2414 46.9075 26.7689 46.2088 26.2491 45.2453C25.5809 43.8565 24.7877 42.7781 23.8495 42.0086C22.9129 41.2324 21.4195 40.8409 19.3489 40.8409C17.4319 40.8409 15.8879 41.2645 14.7134 42.1048C13.5439 42.9486 12.9482 43.9645 12.9482 45.1406C12.9482 45.8815 13.1524 46.5092 13.549 47.0425C13.9489 47.5774 14.4974 48.0398 15.1994 48.4211C15.8753 48.7941 16.5878 49.0966 17.3256 49.324C18.0428 49.5349 19.2291 49.8505 20.8761 50.2707C22.7723 50.7044 24.6441 51.2384 26.4837 51.8704C28.1644 52.4526 29.5853 53.163 30.7632 53.9966C31.9229 54.8129 32.8668 55.8987 33.5138 57.1607C34.1702 58.4348 34.501 59.9957 34.501 61.8469M53.2744 35.5725C57.0696 35.5725 60.3349 36.3437 63.0619 37.8878C65.7855 39.4318 67.846 41.6205 69.2449 44.4606C70.6439 47.3057 71.3475 50.6419 71.3475 54.4725C71.3475 57.3109 70.9628 59.886 70.2 62.1996C69.4289 64.5148 68.2813 66.5246 66.744 68.2273C65.2135 69.9317 63.3302 71.2227 61.096 72.1238C58.8617 73.0249 56.3018 73.4755 53.4212 73.4755C50.5542 73.4755 47.9824 73.0131 45.7178 72.0917C43.4498 71.1653 41.5581 69.8591 40.0478 68.1733C38.5307 66.4943 37.3832 64.471 36.6087 62.0983C35.8375 59.7358 35.4443 57.1793 35.4443 54.427C35.4443 51.6139 35.851 49.0236 36.6576 46.6729C37.4676 44.3222 38.6354 42.3242 40.1693 40.6755C41.6965 39.0218 43.578 37.7612 45.7701 36.8854C47.9706 36.0079 50.4715 35.5725 53.2744 35.5725ZM63.8264 54.4253C63.8264 51.7371 63.3927 49.4168 62.5236 47.4458C61.6528 45.4815 60.421 43.9948 58.8077 42.9857C57.2012 41.9766 55.3585 41.4737 53.2761 41.4737C51.7911 41.4737 50.4192 41.7555 49.1603 42.3107C47.9076 42.8669 46.7975 43.7 45.9135 44.7475C45.004 45.8123 44.2868 47.1775 43.762 48.838C43.2355 50.4934 42.9756 52.3581 42.9756 54.4253C42.9756 56.5043 43.2372 58.3943 43.762 60.07C44.2885 61.7524 45.0276 63.1513 45.9861 64.2617C46.8886 65.3256 48.0175 66.1743 49.2902 66.7457C50.5339 67.3009 51.8924 67.5726 53.374 67.5726C55.2186 67.5893 57.0319 67.0958 58.6137 66.1467C60.2067 65.1983 61.474 63.7318 62.4139 61.7457C63.3505 59.7662 63.8264 57.3261 63.8264 54.4253ZM101.891 61.8452C101.891 64.0575 101.319 66.0471 100.177 67.8122C99.036 69.5858 97.3671 70.9661 95.1649 71.9685C92.9644 72.9641 90.3555 73.467 87.34 73.467C83.7186 73.467 80.7419 72.7836 78.3929 71.4167C76.739 70.4509 75.3436 69.0989 74.326 67.4764C73.2882 65.8345 72.765 64.2381 72.765 62.6907C72.765 61.7929 73.0772 61.0217 73.6982 60.3771C74.326 59.7358 75.1242 59.4186 76.0877 59.4186C76.8724 59.4186 77.5356 59.6683 78.079 60.1678C78.6173 60.6673 79.0814 61.4048 79.4644 62.3936C79.9268 63.5563 80.4364 64.5334 80.973 65.3113C81.5181 66.0994 82.2758 66.744 83.263 67.2486C84.2451 67.7616 85.536 68.0164 87.1425 68.0164C89.3447 68.0164 91.1267 67.5034 92.4987 66.4791C93.874 65.4548 94.5659 64.1706 94.5659 62.6367C94.5659 61.4233 94.1963 60.4378 93.4521 59.6768C92.713 58.9208 91.7477 58.342 90.5834 57.942C89.4021 57.5387 87.8344 57.1118 85.8685 56.6629C83.2343 56.047 81.0304 55.3264 79.2518 54.5029C77.4749 53.676 76.0725 52.5521 75.028 51.1279C73.9834 49.7036 73.4637 47.9335 73.4637 45.8156C73.4637 43.7991 74.0121 42.0103 75.1174 40.4393C76.2109 38.875 77.8022 37.6718 79.8913 36.828C81.9703 35.9876 84.4257 35.5641 87.2387 35.5641C89.4949 35.5641 91.4338 35.8459 93.0825 36.4011C94.7228 36.963 96.0829 37.7038 97.1697 38.6269C98.248 39.5516 99.0394 40.527 99.5355 41.5395C100.045 42.5554 100.29 43.5493 100.29 44.5163C100.29 45.3988 99.9777 46.192 99.3567 46.9075C99.0683 47.2457 98.7089 47.5162 98.3041 47.6997C97.8992 47.8832 97.4589 47.9751 97.0144 47.9689C96.169 47.9689 95.5159 47.7546 95.0772 47.3276C94.6317 46.9075 94.1558 46.2088 93.6428 45.2453C92.9712 43.8565 92.1814 42.7781 91.2347 42.0086C90.3015 41.2324 88.8047 40.8409 86.7375 40.8409C84.8189 40.8409 83.2714 41.2645 82.0952 42.1048C80.9292 42.9486 80.3402 43.9645 80.3402 45.1406C80.3402 45.8815 80.5343 46.5092 80.941 47.0425C81.3375 47.5774 81.8877 48.0398 82.5846 48.4211C83.2622 48.7933 83.9757 49.0957 84.7142 49.324C85.4297 49.5349 86.6194 49.8505 88.2597 50.2707C90.158 50.7045 92.0321 51.2385 93.874 51.8704C95.5463 52.4526 96.9756 53.163 98.1518 53.9966C99.3118 54.8112 100.254 55.8975 100.897 57.1607C101.562 58.4348 101.891 59.9957 101.891 61.8469" fill="white"/>
</g>
<defs>
<clipPath id="clip0_98_21">
<rect width="108" height="108" fill="white"/>
</clipPath>
</defs>
</svg>
