<svg width="97" height="38" viewBox="0 0 97 38" fill="none" xmlns="http://www.w3.org/2000/svg">
<path d="M29.1279 26.2811C29.1279 28.4934 28.5592 30.483 27.4151 32.2481C26.271 34.0217 24.6021 35.4021 22.3982 36.4044C20.196 37.4001 17.5905 37.9029 14.5749 37.9029C10.9536 37.9029 7.97512 37.2195 5.62106 35.8526C3.97053 34.886 2.57862 33.534 1.56431 31.9123C0.523125 30.2704 0 28.674 0 27.1266C0 26.2288 0.313875 25.4576 0.933187 24.813C1.56431 24.1717 2.35744 23.8545 3.32606 23.8545C4.10569 23.8545 4.77056 24.1042 5.31394 24.6037C5.85225 25.1032 6.31294 25.8407 6.69937 26.8296C7.1685 27.9922 7.668 28.9693 8.21137 29.7472C8.75306 30.5353 9.52087 31.1799 10.4996 31.6845C11.4817 32.1975 12.7777 32.4523 14.3775 32.4523C16.5797 32.4523 18.3617 31.9393 19.7336 30.915C21.1089 29.8907 21.8042 28.6065 21.8042 27.0726C21.8042 25.8593 21.4312 24.8737 20.6904 24.1127C19.9496 23.3567 18.9861 22.7779 17.8132 22.3779C16.6371 21.9746 15.066 21.5477 13.1017 21.0988C10.4692 20.4829 8.26369 19.7623 6.48844 18.9388C4.70981 18.1119 3.3075 16.9881 2.26631 15.5638C1.22175 14.1396 0.698625 12.3694 0.698625 10.2516C0.698625 8.235 1.24706 6.44625 2.35069 4.87519C3.44756 3.31088 5.03887 2.10769 7.12294 1.26394C9.21206 0.42356 11.6589 0 14.4754 0C16.7265 0 18.6688 0.28181 20.3091 0.836997C21.9527 1.39893 23.3179 2.13975 24.4029 3.06281C25.488 3.98756 26.2777 4.96294 26.7739 5.97544C27.2801 6.99131 27.5282 7.98525 27.5282 8.95219C27.5282 9.83475 27.2143 10.6279 26.5933 11.3434C25.9605 12.0471 25.1842 12.4048 24.2527 12.4048C23.4056 12.4048 22.7542 12.1905 22.3155 11.7636C21.8683 11.3434 21.3958 10.6447 20.8761 9.68119C20.2078 8.29237 19.4147 7.21406 18.4764 6.44456C17.5399 5.66831 16.0464 5.27681 13.9759 5.27681C12.0589 5.27681 10.5148 5.70037 9.34031 6.54075C8.17087 7.3845 7.57519 8.40037 7.57519 9.57656C7.57519 10.3174 7.77937 10.9451 8.17594 11.4784C8.57587 12.0133 9.12431 12.4757 9.82631 12.8571C10.5023 13.23 11.2148 13.5325 11.9526 13.7599C12.6697 13.9708 13.8561 14.2864 15.5031 14.7066C17.3992 15.1403 19.271 15.6743 21.1106 16.3063C22.7914 16.8885 24.2122 17.5989 25.3901 18.4326C26.5498 19.2488 27.4938 20.3347 28.1407 21.5966C28.7972 22.8707 29.1279 24.4316 29.1279 26.2828M47.9014 0.00843608C51.6966 0.00843608 54.9619 0.779623 57.6889 2.32369C60.4125 3.86775 62.4729 6.05644 63.8719 8.8965C65.2708 11.7416 65.9745 15.0778 65.9745 18.9084C65.9745 21.7468 65.5897 24.3219 64.827 26.6355C64.0558 28.9508 62.9083 30.9606 61.371 32.6633C59.8404 34.3676 57.9572 35.6586 55.7229 36.5597C53.4887 37.4608 50.9287 37.9114 48.0482 37.9114C45.1811 37.9114 42.6094 37.449 40.3447 36.5276C38.0767 35.6012 36.1851 34.2951 34.6747 32.6092C33.1577 30.9302 32.0102 28.9069 31.2356 26.5343C30.4644 24.1718 30.0712 21.6152 30.0712 18.8629C30.0712 16.0498 30.4779 13.4595 31.2846 11.1088C32.0946 8.75813 33.2623 6.76012 34.7962 5.11144C36.3234 3.45769 38.205 2.19712 40.3971 1.32131C42.5976 0.443811 45.0984 0.00843608 47.9014 0.00843608ZM58.4533 18.8612C58.4533 16.173 58.0196 13.8527 57.1506 11.8817C56.2798 9.91744 55.0479 8.43075 53.4347 7.42162C51.8282 6.4125 49.9854 5.90962 47.9031 5.90962C46.4181 5.90962 45.0461 6.19144 43.7872 6.74662C42.5346 7.30279 41.4245 8.13596 40.5405 9.18337C39.6309 10.2482 38.9137 11.6134 38.3889 13.2739C37.8624 14.9293 37.6026 16.794 37.6026 18.8612C37.6026 20.9402 37.8641 22.8302 38.3889 24.5059C38.9154 26.1883 39.6546 27.5873 40.6131 28.6976C41.5156 29.7615 42.6445 30.6102 43.9172 31.1816C45.1609 31.7368 46.5193 32.0085 48.0009 32.0085C49.8455 32.0252 51.6589 31.5317 53.2406 30.5826C54.8336 29.6342 56.1009 28.1678 57.0409 26.1816C57.9774 24.2021 58.4533 21.762 58.4533 18.8612ZM96.5182 26.2811C96.5182 28.4934 95.9462 30.483 94.8037 32.2481C93.663 34.0217 91.9941 35.4021 89.7919 36.4044C87.5914 37.4001 84.9825 37.9029 81.9669 37.9029C78.3456 37.9029 75.3688 37.2195 73.0198 35.8526C71.366 34.8868 69.9706 33.5348 68.9529 31.9123C67.9151 30.2704 67.392 28.674 67.392 27.1266C67.392 26.2288 67.7042 25.4576 68.3252 24.813C68.9529 24.1717 69.7511 23.8545 70.7147 23.8545C71.4994 23.8545 72.1626 24.1042 72.7059 24.6037C73.2442 25.1032 73.7083 25.8407 74.0914 26.8296C74.5537 27.9922 75.0634 28.9693 75.6 29.7472C76.1451 30.5353 76.9027 31.1799 77.8899 31.6845C78.8721 32.1975 80.163 32.4523 81.7695 32.4523C83.9717 32.4523 85.7537 31.9393 87.1256 30.915C88.5009 29.8907 89.1928 28.6065 89.1928 27.0726C89.1928 25.8593 88.8232 24.8737 88.0791 24.1127C87.3399 23.3567 86.3747 22.7779 85.2103 22.3779C84.0291 21.9746 82.4614 21.5477 80.4954 21.0988C77.8612 20.4829 75.6574 19.7623 73.8787 18.9388C72.1018 18.1119 70.6995 16.9881 69.6549 15.5638C68.6104 14.1396 68.0906 12.3694 68.0906 10.2516C68.0906 8.235 68.6391 6.44625 69.7444 4.87519C70.8379 3.31088 72.4292 2.10769 74.5183 1.26394C76.5973 0.42356 79.0526 0 81.8657 0C84.1219 0 86.0608 0.28181 87.7095 0.836997C89.3497 1.39893 90.7099 2.13975 91.7966 3.06281C92.8749 3.98756 93.6664 4.96294 94.1625 5.97544C94.6721 6.99131 94.9168 7.98525 94.9168 8.95219C94.9168 9.83475 94.6046 10.6279 93.9836 11.3434C93.6953 11.6817 93.3359 11.9522 92.931 12.1356C92.5262 12.3191 92.0858 12.411 91.6414 12.4048C90.7959 12.4048 90.1429 12.1905 89.7041 11.7636C89.2586 11.3434 88.7827 10.6447 88.2697 9.68119C87.5981 8.29237 86.8084 7.21406 85.8617 6.44456C84.9285 5.66831 83.4317 5.27681 81.3645 5.27681C79.4458 5.27681 77.8984 5.70037 76.7222 6.54075C75.5561 7.3845 74.9672 8.40037 74.9672 9.57656C74.9672 10.3174 75.1612 10.9451 75.5679 11.4784C75.9645 12.0133 76.5146 12.4757 77.2116 12.8571C77.8891 13.2292 78.6026 13.5317 79.3412 13.7599C80.0567 13.9708 81.2464 14.2864 82.8866 14.7066C84.785 15.1404 86.659 15.6744 88.5009 16.3063C90.1732 16.8885 91.6026 17.5989 92.7787 18.4326C93.9387 19.2471 94.8814 20.3335 95.5243 21.5966C96.1892 22.8707 96.5182 24.4316 96.5182 26.2828" fill="white"/>
</svg>
