<svg width="273" height="273" viewBox="0 0 273 273" fill="none" xmlns="http://www.w3.org/2000/svg">
<path d="M56.875 250.25C50.6187 250.25 45.2649 248.024 40.8135 243.573C36.3621 239.121 34.1326 233.764 34.125 227.5V175.744L65.4062 140.197L81.6156 156.406L58.8656 182H214.134L191.953 156.975L208.162 140.766L238.875 175.744V227.5C238.875 233.756 236.649 239.114 232.198 243.573C227.746 248.032 222.389 250.258 216.125 250.25H56.875ZM56.875 227.5H216.125V204.75H56.875V227.5ZM120.859 163.516L80.7625 123.419C76.4021 119.058 74.2712 113.704 74.3698 107.357C74.4683 101.01 76.694 95.6524 81.0469 91.2844L136.784 35.5469C141.145 31.1865 146.548 28.9115 152.994 28.7219C159.44 28.5323 164.843 30.6177 169.203 34.9781L209.3 75.075C213.66 79.4354 215.935 84.7437 216.125 91C216.315 97.2562 214.229 102.565 209.869 106.925L152.994 163.8C148.633 168.16 143.28 170.295 136.932 170.204C130.585 170.113 125.227 167.884 120.859 163.516ZM193.375 91.2844L153.278 51.1875L96.9719 107.494L137.069 147.591L193.375 91.2844Z" fill="black"/>
</svg>
